<svg id="Layer_1" data-name="Layer 1" xmlns="http://www.w3.org/2000/svg" viewBox="0 0 20 20"><defs><style>.cls-1{fill:#b3b3b3;}</style></defs><title>social</title><path class="cls-1" d="M18,5.94V6.45a12,12,0,0,1-1.31,5.43,11.49,11.49,0,0,1-4,4.43,11.17,11.17,0,0,1-6.33,1.82A11.26,11.26,0,0,1,0,16.29a8.72,8.72,0,0,0,1,0,7.93,7.93,0,0,0,5.12-1.76,3.84,3.84,0,0,1-2.38-.8,4.26,4.26,0,0,1-1.48-2.05A3,3,0,0,0,3,11.8a4.86,4.86,0,0,0,1.09-.12,4.13,4.13,0,0,1-2.34-1.45A3.93,3.93,0,0,1,.82,7.66V7.58a3.69,3.69,0,0,0,1.84.51A3.79,3.79,0,0,1,.82,4.69a4.25,4.25,0,0,1,.59-2.07,11,11,0,0,0,8.44,4.3A3.85,3.85,0,0,1,9.73,6a4,4,0,0,1,1.19-2.89,3.93,3.93,0,0,1,2.91-1.21,4,4,0,0,1,3,1.29,8.18,8.18,0,0,0,2.62-1,4.07,4.07,0,0,1-1.8,2.27A8,8,0,0,0,20,3.79,8.39,8.39,0,0,1,18,5.94Z"/></svg>