<svg id="Layer_1" data-name="Layer 1" xmlns="http://www.w3.org/2000/svg" viewBox="0 0 20 20"><defs><style>.cls-1{fill:#b3b3b3;}</style></defs><title>social</title><path class="cls-1" d="M20,2.27V17.73a2.21,2.21,0,0,1-.57,1.5A2.24,2.24,0,0,1,18,20H2.27a2.21,2.21,0,0,1-1.5-.57A2.21,2.21,0,0,1,0,18V2.34A2.36,2.36,0,0,1,.51.84,2.17,2.17,0,0,1,1.88,0,1.85,1.85,0,0,1,2.3,0H17.66a2.29,2.29,0,0,1,1.56.59A2.16,2.16,0,0,1,20,2.07v0.2ZM17.62,8.4H15.94a6.21,6.21,0,0,1-2.54,6.72,6,6,0,0,1-3.22,1,6.24,6.24,0,0,1-3.26-.82,6,6,0,0,1-2.38-2.46A6.44,6.44,0,0,1,4,8.4H2.19v8.48a0.76,0.76,0,0,0,.25.59A0.86,0.86,0,0,0,3,17.7H16.88a0.73,0.73,0,0,0,.57-0.23,0.78,0.78,0,0,0,.21-0.55q0-1.41,0-4.2t0-4.16V8.4ZM7.27,7.29A3.66,3.66,0,0,0,6.13,10a3.66,3.66,0,0,0,1.13,2.71A3.76,3.76,0,0,0,10,13.83a3.68,3.68,0,0,0,2.7-1.13,3.77,3.77,0,0,0,0-5.39A3.68,3.68,0,0,0,10,6.17,3.76,3.76,0,0,0,7.27,7.29Zm6.56-1.89a0.8,0.8,0,0,0,.78.78h2.3a0.69,0.69,0,0,0,.53-0.23,0.78,0.78,0,0,0,.21-0.55q0-1.13,0-2.3a0.78,0.78,0,0,0-.21-0.55,0.73,0.73,0,0,0-.57-0.23H14.61a0.8,0.8,0,0,0-.78.78v2.3Z"/></svg>