<svg id="Layer_1" data-name="Layer 1" xmlns="http://www.w3.org/2000/svg" viewBox="0 0 20 20"><defs><style>.cls-1{fill:#b3b3b3;}</style></defs><title>social</title><path class="cls-1" d="M20,9.22v1.52A26.76,26.76,0,0,1,19.8,14l0,0.35a6.27,6.27,0,0,1-.27.86A2.22,2.22,0,0,1,19,16a3.17,3.17,0,0,1-2,.86q-2.77.2-7,.2l-6.8-.2-0.29,0-0.45-.08L2,16.6a2.11,2.11,0,0,1-.53-0.23A2.68,2.68,0,0,1,1,16,3.63,3.63,0,0,1,.2,14L0,10.74V9.22A26.44,26.44,0,0,1,.2,6l0-.39A5.6,5.6,0,0,1,.51,4.79,2.24,2.24,0,0,1,1,4a3.06,3.06,0,0,1,2-.86Q5.78,3,10,3l7,0.2A3.06,3.06,0,0,1,19,4a3.47,3.47,0,0,1,.78,2Zm-6.64.59L8,7v5.63l4.73-2.46Z"/></svg>