<svg id="Layer_1" data-name="Layer 1" xmlns="http://www.w3.org/2000/svg" viewBox="0 0 20.02 20"><defs><style>.cls-1{fill:#b3b3b3;}</style></defs><title>social</title><path class="cls-1" d="M20,6.92a1.3,1.3,0,0,1-.15,1,1.26,1.26,0,0,1-.8.61,1.27,1.27,0,0,1-1-.13A19,19,0,0,0,9.79,6.12a20.56,20.56,0,0,0-8.08.71,1.27,1.27,0,0,1-1-.07A1.33,1.33,0,0,1,.06,6,1.25,1.25,0,0,1,.17,5,1.33,1.33,0,0,1,.95,4.34a22.44,22.44,0,0,1,5.78-.93,28.41,28.41,0,0,1,6.7.55,19,19,0,0,1,6,2.15A1.32,1.32,0,0,1,20,6.92Zm-2.08,5.44a1,1,0,0,1-.66.49,1.08,1.08,0,0,1-.82-0.13,16.82,16.82,0,0,0-6.77-2.15,17.62,17.62,0,0,0-7.26.59,0.92,0.92,0,0,1-.8-0.05A1.15,1.15,0,0,1,1,10.47a1.12,1.12,0,0,1,.09-0.84A1,1,0,0,1,1.76,9.1a19.84,19.84,0,0,1,8.18-.71,18.39,18.39,0,0,1,7.61,2.45A1,1,0,0,1,17.91,12.36Zm-1.58,3.15a0.9,0.9,0,0,1-.11.68,0.83,0.83,0,0,1-.52.39A0.82,0.82,0,0,1,15,16.48Q10,13.5,2.69,15.23A0.86,0.86,0,0,1,2,15.11a0.84,0.84,0,0,1-.39-0.54,0.8,0.8,0,0,1,.66-1.06Q10.37,11.63,15.93,15A0.72,0.72,0,0,1,16.33,15.52Z"/></svg>