<svg id="Layer_1" data-name="Layer 1" xmlns="http://www.w3.org/2000/svg" viewBox="0 0 20 20"><defs><style>.cls-1{fill:#b3b3b3;}</style></defs><title>social</title><path class="cls-1" d="M12.47,1.09a4.28,4.28,0,0,1,1.45,1,5.68,5.68,0,0,1,1.25,1.76,10.21,10.21,0,0,1,.23,4V7.93a1.64,1.64,0,0,1,0,.39l0.12,0,0.16,0a1.94,1.94,0,0,0,.86-0.23A0.73,0.73,0,0,1,16.89,8a1.37,1.37,0,0,1,.43.08,0.86,0.86,0,0,1,.66.74,0.75,0.75,0,0,1-.23.55,2.72,2.72,0,0,1-.82.47,0.42,0.42,0,0,1-.14.08l-0.14,0a1.69,1.69,0,0,0-1.09.63,0.8,0.8,0,0,0,.12.7,4.22,4.22,0,0,0,.41.84,6.48,6.48,0,0,0,1.33,1.43,4.39,4.39,0,0,0,2.17,1.05,0.38,0.38,0,0,1,.39.47,0.54,0.54,0,0,1,0,.23,1.25,1.25,0,0,1-.66.59,7.72,7.72,0,0,1-2,.51,1.54,1.54,0,0,0-.12.43l-0.12.47a0.48,0.48,0,0,1-.51.35h0a2.43,2.43,0,0,1-.47,0,3.89,3.89,0,0,0-1-.12,6.34,6.34,0,0,0-.78.08,3.83,3.83,0,0,0-1.41.7,4.87,4.87,0,0,1-2.73,1.09H9.85a4.87,4.87,0,0,1-2.73-1.09,3.83,3.83,0,0,0-1.41-.7A6.42,6.42,0,0,0,5,17.54a7.05,7.05,0,0,0-1.05.12l-0.47.08a0.6,0.6,0,0,1-.55-0.39l-0.12-.47a4,4,0,0,1-.12-0.43,7.72,7.72,0,0,1-2-.51,1.51,1.51,0,0,1-.66-0.59,0.54,0.54,0,0,1,0-.23A0.38,0.38,0,0,1,.4,14.65,4.28,4.28,0,0,0,2.08,14a5,5,0,0,0,1.21-1.09,6.24,6.24,0,0,0,1-1.56h0a0.88,0.88,0,0,0,.08-0.7A1.91,1.91,0,0,0,3.37,10L3.06,9.88a2.14,2.14,0,0,1-.74-0.43A0.72,0.72,0,0,1,2,8.75,1,1,0,0,1,2.47,8.2,1.32,1.32,0,0,1,3.06,8a1.24,1.24,0,0,1,.35.08,1.94,1.94,0,0,0,.86.23,0.78,0.78,0,0,0,.35-0.08s0-.09,0-0.2a2.07,2.07,0,0,1,0-.23,9.76,9.76,0,0,1,.27-4.06A5.78,5.78,0,0,1,6.07,2.07a4.57,4.57,0,0,1,1.45-1A5.77,5.77,0,0,1,9.82.59h0.39A5.32,5.32,0,0,1,12.47,1.09Z"/></svg>